<?xml version="1.0" encoding="utf-8"?>
<!-- Generator: Adobe Illustrator 22.0.1, SVG Export Plug-In . SVG Version: 6.00 Build 0)  -->
<svg version="1.1" baseProfile="tiny" id="Camada_1"
	 xmlns="http://www.w3.org/2000/svg" xmlns:xlink="http://www.w3.org/1999/xlink" x="0px" y="0px" viewBox="0 0 157 69"
	 xml:space="preserve">
<path fill="#1191AE" d="M36,56.6l3.8,3.5c0.8,0.7,1,1.7,1,2.8v1.7c0,2.7-1.5,4.3-4.6,4.3c-3.2,0-4.5-1.6-4.5-4.3v-1.9h3.5v2
	c0,0.7,0.2,1,1,1c0.8,0,1.2-0.4,1.2-1v-1.3c0-0.8-0.3-1.4-0.9-1.9l-3.8-3.5c-0.8-0.7-1-1.7-1-2.8v-1.7c0-2.7,1.5-4.3,4.6-4.3
	c3.2,0,4.5,1.6,4.5,4.3v1.9h-3.5v-2c0-0.7-0.2-1-1-1c-0.8,0-1.2,0.4-1.2,1v1.3C35.2,55.5,35.5,56.1,36,56.6z"/>
<path fill="#1191AE" d="M47.2,49.2c-3.2,0-4.6,1.6-4.6,4.3v11.1c0,2.7,1.5,4.3,4.6,4.3c3.2,0,4.6-1.6,4.6-4.3V53.6
	C51.8,50.8,50.4,49.2,47.2,49.2z M48.4,64.8c0,0.7-0.4,1-1.2,1c-0.8,0-1.2-0.4-1.2-1V53.4c0-0.7,0.4-1,1.2-1c0.8,0,1.2,0.4,1.2,1
	V64.8z"/>
<polygon fill="#1191AE" points="57.3,49.5 57.3,65.6 61.3,65.6 61.3,68.7 53.8,68.7 53.8,49.5 "/>
<polygon fill="#1191AE" points="68.3,49.5 71.6,49.5 69.1,68.7 64.1,68.7 61.6,49.5 65,49.5 66.6,63.5 "/>
<polygon fill="#1191AE" points="80.6,52.7 76.5,52.7 76.5,56.9 79.4,56.9 79.4,60.1 76.5,60.1 76.5,65.5 80.7,65.5 80.7,68.7 
	73,68.7 73,49.5 80.6,49.5 "/>
<polygon fill="#1191AE" points="8.1,61.1 6.4,68.7 2.7,68.7 0,49.5 3.6,49.5 5,61.3 6.9,49.5 9.3,49.5 11.2,61.3 12.6,49.5 
	16.2,49.5 13.5,68.7 9.9,68.7 "/>
<polygon fill="#1191AE" points="25.2,52.7 21,52.7 21,56.9 24,56.9 24,60.1 21,60.1 21,65.5 25.3,65.5 25.3,68.7 17.6,68.7 
	17.6,49.5 25.2,49.5 "/>
<polygon fill="#FFFFFF" points="153,24.7 156.6,24.7 152.8,31.8 157,44 153.2,44 150.8,35.7 150,37.1 150,44 146.5,44 146.5,24.7 
	150,24.7 150,30.6 "/>
<path fill="#FFFFFF" d="M144.4,38.1v1.8c0,2.7-1.4,4.3-4.8,4.3c-3.3,0-4.8-1.6-4.8-4.3V28.8c0-2.7,1.4-4.3,4.8-4.3
	c3.3,0,4.8,1.6,4.8,4.3v1.8h-3.5v-2c0-0.7-0.3-1-1.3-1c-1,0-1.3,0.4-1.3,1V40c0,0.7,0.3,1,1.3,1c1,0,1.3-0.4,1.3-1v-2L144.4,38.1
	L144.4,38.1z"/>
<rect x="128.8" y="24.7" fill="#FFFFFF" width="3.5" height="19.2"/>
<polygon fill="#FFFFFF" points="120.4,44 118.6,36.3 116.8,44 113.2,44 110.5,24.7 114.1,24.7 115.5,36.5 117.4,24.7 119.8,24.7 
	121.7,36.5 123.1,24.7 126.7,24.7 124,44 "/>
<path fill="#FFFFFF" d="M105.3,24.7h-6.2V44h6.2c2.2,0,3.3-1.1,3.3-3.3V28C108.6,25.8,107.5,24.7,105.3,24.7z M105.1,40.2
	c0,0.4-0.1,0.5-0.5,0.5h-2V27.9h2c0.4,0,0.5,0.1,0.5,0.5V40.2z"/>
<polygon fill="#FFFFFF" points="93.2,24.7 96.6,24.7 96.6,44 93.2,44 89.9,33.8 89.9,44 86.4,44 86.4,24.7 89.9,24.7 93.2,34.4 "/>
<path fill="#FFFFFF" d="M80.4,24.7h-3.5L72.5,44h3.3l0.7-3.3h4.2l0.7,3.3h3.3L80.4,24.7z M77.3,37.3l1.3-7.8l1.3,7.8H77.3z"/>
<polygon fill="#FFFFFF" points="67.4,24.7 70.8,24.7 70.8,44 67.4,44 67.4,35.4 64.7,35.4 64.7,44 61.3,44 61.3,24.7 64.7,24.7 
	64.7,32.2 67.4,32.2 "/>
<path fill="#FFFFFF" d="M54,31.9l3.8,3.5c0.8,0.7,1,1.7,1,2.8v1.7c0,2.7-1.5,4.3-4.6,4.3c-3.2,0-4.5-1.6-4.5-4.3v-1.9h3.5v2
	c0,0.7,0.2,1,1,1c0.8,0,1.2-0.4,1.2-1v-1.3c0-0.8-0.3-1.4-0.9-1.9l-3.8-3.5c-0.8-0.7-1-1.7-1-2.8v-1.7c0-2.7,1.5-4.3,4.6-4.3
	c3.2,0,4.5,1.6,4.5,4.3v1.9h-3.5v-2c0-0.7-0.2-1-1-1c-0.8,0-1.2,0.4-1.2,1V30C53.1,30.8,53.4,31.4,54,31.9z"/>
<path fill="#FFFFFF" d="M108.8,16.9v-4.3c0-1.3-0.1-2.2-1.9-2.7c1.3-0.3,1.7-1.1,1.7-2.6V3.3c0-2.2-0.9-3.3-3.1-3.3h-5.9v19.2h3.5
	V11h0.8c0.7,0,1.5,0.4,1.5,1.5v2.9c0,1.7,0.1,3,0.8,3.8h3.2C109.1,18.7,108.8,17.7,108.8,16.9z M105.2,7.5c0,0.5-0.3,0.8-0.8,0.8
	h-1.3V3.2h1.3c0.5,0,0.8,0.3,0.8,0.8V7.5z"/>
<path fill="#FFFFFF" d="M97,0v3.2h-4.1v4.3h2.9v3.2h-2.9v5.4h4.2v3.2c-7.7,0-7.7,0-7.7,0V0H97z"/>
<path fill="#FFFFFF" d="M87,7.4V3.3C87,1.1,85.9,0,83.7,0h-5.8v19.2h5.8c2.2,0,3.3-1.1,3.3-3.3v-4.2c0-1.1-0.3-1.7-1.9-2.2
	C86.3,9.3,86.9,8.6,87,7.4z M83.5,15.3c0,0.5-0.3,0.8-0.8,0.8h-1.3V11h1.3c0.5,0,0.8,0.3,0.8,0.8V15.3z M83.5,7.5
	c0,0.5-0.3,0.8-0.8,0.8h-1.3V3.2h1.3c0.5,0,0.8,0.3,0.8,0.8V7.5z"/>
<path fill="#FFFFFF" d="M75.5,0v3.2h-4.1v4.3h2.9v3.2h-2.9v5.4h4.2v3.2c-7.7,0-7.7,0-7.7,0V0H75.5z"/>
<polygon fill="#FFFFFF" points="59.3,19.2 57.6,11.6 55.8,19.2 52.2,19.2 49.5,0 53.1,0 54.5,11.8 56.4,0 58.8,0 60.7,11.8 62.1,0 
	65.7,0 63,19.2 "/>
<path fill="#FFFFFF" d="M36.9,0l-3.3,4l-3.3-4H13.6l-3.3,4L7,0H0v44h18.7l3.3-4l3.3,4H44V0H36.9z M38.7,8.8l-4,3.3l4,3.3v23.3H5.3
	v-3.5l4-3.3l-4-3.3V5.3h33.4V8.8z"/>
</svg>
