<?xml version="1.0" encoding="utf-8"?>
<!-- Generator: Adobe Illustrator 22.0.1, SVG Export Plug-In . SVG Version: 6.00 Build 0)  -->
<svg version="1.1" baseProfile="tiny" id="Camada_1"
	 xmlns="http://www.w3.org/2000/svg" xmlns:xlink="http://www.w3.org/1999/xlink" x="0px" y="0px" viewBox="0 0 155 44"
	 xml:space="preserve">
<polygon points="151.1,24.6 154.6,24.6 150.9,31.6 155,43.7 151.2,43.7 148.8,35.5 148.1,36.8 148.1,43.7 144.7,43.7 144.7,24.6 
	148.1,24.6 148.1,30.4 "/>
<path d="M142.6,37.9v1.8c0,2.7-1.4,4.3-4.7,4.3c-3.3,0-4.7-1.6-4.7-4.3v-11c0-2.7,1.4-4.3,4.7-4.3c3.3,0,4.7,1.6,4.7,4.3v1.8h-3.4
	v-2c0-0.7-0.3-1-1.3-1c-1,0-1.3,0.4-1.3,1v11.3c0,0.7,0.3,1,1.3,1c1,0,1.3-0.4,1.3-1v-2L142.6,37.9L142.6,37.9z"/>
<rect x="127.2" y="24.6" width="3.4" height="19.1"/>
<polygon points="118.8,43.7 117.1,36.1 115.4,43.7 111.8,43.7 109.1,24.6 112.6,24.6 114,36.3 115.9,24.6 118.3,24.6 120.2,36.3 
	121.6,24.6 125.1,24.6 122.4,43.7 "/>
<path d="M103.9,24.6h-6.1v19.1h6.1c2.2,0,3.2-1.1,3.2-3.2V27.8C107.2,25.7,106.1,24.6,103.9,24.6z M103.8,40c0,0.4-0.1,0.5-0.5,0.5
	h-2V27.8h2c0.4,0,0.5,0.1,0.5,0.5V40z"/>
<polygon points="92,24.6 95.4,24.6 95.4,43.7 92,43.7 88.8,33.6 88.8,43.7 85.3,43.7 85.3,24.6 88.8,24.6 92,34.2 "/>
<path d="M79.4,24.6h-3.5l-4.3,19.1h3.3l0.7-3.3h4.1l0.7,3.3h3.3L79.4,24.6z M76.3,37.1l1.3-7.8l1.3,7.8H76.3z"/>
<polygon points="66.5,24.6 69.9,24.6 69.9,43.7 66.5,43.7 66.5,35.1 63.9,35.1 63.9,43.7 60.5,43.7 60.5,24.6 63.9,24.6 63.9,32 
	66.5,32 "/>
<path d="M53.3,31.7l3.7,3.5c0.8,0.7,1,1.7,1,2.8v1.7c0,2.7-1.4,4.3-4.6,4.3c-3.1,0-4.5-1.6-4.5-4.3v-1.9h3.4v2c0,0.7,0.2,1,1,1
	s1.1-0.4,1.1-1v-1.3c0-0.8-0.3-1.4-0.9-1.9L50,33.1c-0.8-0.7-1-1.7-1-2.8v-1.7c0-2.7,1.4-4.3,4.6-4.3c3.1,0,4.5,1.6,4.5,4.3v1.9
	h-3.4v-2c0-0.7-0.2-1-1-1c-0.8,0-1.1,0.4-1.1,1v1.3C52.4,30.6,52.7,31.2,53.3,31.7z"/>
<path d="M107.5,16.8v-4.2c0-1.3-0.1-2.2-1.9-2.7c1.3-0.3,1.7-1.1,1.7-2.5V3.3c0-2.2-0.9-3.3-3.1-3.3h-5.8v19.1h3.4v-8.2h0.8
	c0.7,0,1.5,0.4,1.5,1.5v2.9c0,1.7,0.1,3,0.8,3.8h3.2C107.7,18.6,107.5,17.6,107.5,16.8z M103.8,7.5c0,0.5-0.3,0.8-0.8,0.8h-1.3V3.2
	h1.3c0.5,0,0.8,0.3,0.8,0.8V7.5z"/>
<path d="M95.8,0v3.2h-4.1v4.2h2.9v3.2h-2.9V16h4.2v3.2c-7.6,0-7.6,0-7.6,0V0H95.8z"/>
<path d="M85.9,7.3V3.3c0-2.2-1.1-3.3-3.2-3.3h-5.7v19.1h5.7c2.2,0,3.2-1.1,3.2-3.3v-4.1c0-1.1-0.3-1.7-1.9-2.2
	C85.2,9.3,85.8,8.6,85.9,7.3z M82.4,15.2c0,0.5-0.3,0.8-0.8,0.8h-1.3v-5.1h1.3c0.5,0,0.8,0.3,0.8,0.8V15.2z M82.4,7.5
	c0,0.5-0.3,0.8-0.8,0.8h-1.3V3.2h1.3c0.5,0,0.8,0.3,0.8,0.8V7.5z"/>
<path d="M74.5,0v3.2h-4.1v4.2h2.9v3.2h-2.9V16h4.2v3.2c-7.6,0-7.6,0-7.6,0V0H74.5z"/>
<polygon points="58.6,19.1 56.9,11.5 55.1,19.1 51.6,19.1 48.9,0 52.4,0 53.8,11.7 55.6,0 58.1,0 59.9,11.7 61.3,0 64.9,0 
	62.2,19.1 "/>
<path d="M36.5,0l-3.3,3.9L30,0H13.5l-3.3,3.9L6.9,0H0v43.7h18.5l3.3-3.9l3.3,3.9h18.5V0H36.5z M38.2,8.7L34.3,12l3.9,3.3v23.2h-33
	V35l3.9-3.3l-3.9-3.3V5.2h33V8.7z"/>
</svg>
